<svg width="72" height="72" viewBox="0 0 72 72" fill="none" xmlns="http://www.w3.org/2000/svg">
<path d="M43.5489 44.9236C42.7147 44.9236 41.9001 45.1708 41.2072 45.6336C40.5143 46.0964 39.9736 46.7553 39.6546 47.525C39.3355 48.2947 39.2527 49.1424 39.4147 49.9608C39.5778 50.778 39.9785 51.5295 40.5679 52.1189C41.1572 52.7084 41.9086 53.1103 42.7257 53.2723C43.5428 53.4355 44.3903 53.3515 45.1611 53.0324C45.9307 52.7133 46.5895 52.1725 47.0523 51.4795C47.515 50.7866 47.7622 49.9718 47.7622 49.1375C47.7622 48.0195 47.3177 46.9477 46.5274 46.1573C45.7371 45.3669 44.6655 44.9224 43.5476 44.9224L43.5489 44.9236ZM41.872 48.0012C41.6687 48.0012 41.4714 47.9415 41.3022 47.8283C41.1329 47.715 41.0026 47.5555 40.9247 47.3679C40.8467 47.1804 40.8272 46.9745 40.8662 46.7748C40.9052 46.5763 41.0038 46.3936 41.1475 46.2499C41.2912 46.1062 41.4739 46.0087 41.6723 45.9685C41.8708 45.9284 42.0778 45.9491 42.2654 46.027C42.4529 46.1049 42.6124 46.2365 42.7257 46.4045C42.8389 46.5738 42.8986 46.7711 42.8986 46.9745C42.8986 47.2461 42.7902 47.508 42.5978 47.7004C42.4054 47.8928 42.1448 48.0012 41.872 48.0012Z" fill="#1B1D21"/>
<path d="M38.7705 53.2077C37.8694 52.9446 36.933 52.8192 35.9953 52.8387C35.0589 52.8119 34.1249 52.93 33.225 53.1882C32.5857 53.3989 32.017 53.7826 31.5823 54.2965C30.6824 55.322 30.848 55.7117 31.855 56.5569C35.5496 59.7515 36.4483 59.7466 40.1478 56.5569C41.1488 55.7105 41.3095 55.322 40.4157 54.2965C39.9797 53.7874 39.4111 53.4111 38.773 53.2077H38.7705ZM33.8265 55.1283C33.1945 55.3183 32.6015 55.1673 32.4846 54.7983C32.3677 54.4293 32.7951 53.9713 33.4223 53.7826C34.0494 53.5926 34.657 53.7387 34.7691 54.1126C34.8811 54.4865 34.4585 54.9347 33.8265 55.1283Z" fill="#1B1D21"/>
<path d="M32.6616 49.1387C32.6616 48.3044 32.4168 47.4897 31.9541 46.7967C31.4913 46.1025 30.8338 45.5617 30.0642 45.2426C29.2946 44.9223 28.447 44.8383 27.6299 45.0003C26.8116 45.1622 26.0603 45.5629 25.4709 46.1512C24.8803 46.7394 24.4784 47.4909 24.3153 48.3081C24.1521 49.1253 24.2337 49.973 24.5527 50.7439C24.8705 51.5148 25.41 52.1737 26.1029 52.6377C26.7958 53.1017 27.6104 53.3502 28.4434 53.3514C28.9962 53.3514 29.5454 53.243 30.0569 53.0323C30.5683 52.8216 31.0335 52.5111 31.4256 52.1201C31.8177 51.7292 32.1282 51.2652 32.3413 50.7536C32.5532 50.2421 32.6628 49.6941 32.664 49.1411L32.6616 49.1387ZM30.1238 48.0012C29.9205 48.0012 29.7232 47.9415 29.5539 47.8282C29.3847 47.715 29.2544 47.5554 29.1764 47.3679C29.0985 47.1803 29.079 46.9745 29.118 46.7747C29.157 46.5762 29.2556 46.3935 29.3993 46.2498C29.543 46.1061 29.7256 46.0087 29.9241 45.9685C30.1226 45.9295 30.3296 45.949 30.5172 46.027C30.7047 46.1049 30.8642 46.2364 30.9775 46.4045C31.0907 46.5738 31.1504 46.7711 31.1504 46.9745C31.1504 47.1097 31.1236 47.2424 31.0724 47.3666C31.0213 47.4909 30.9458 47.6041 30.8496 47.6991C30.7546 47.7941 30.6414 47.8696 30.5172 47.922C30.3929 47.9732 30.259 48 30.125 48L30.1238 48.0012Z" fill="#1B1D21"/>
<path d="M20.2797 36.1438C19.862 37.6991 19.3444 40.186 18.7295 43.6022C20.2845 42.1091 22.0588 40.862 23.9889 39.9023C23.4823 38.4724 22.7979 37.112 21.9516 35.8527C20.975 34.457 20.7071 34.5398 20.2797 36.145V36.1438Z" fill="#1B1D21"/>
<path d="M50.0578 35.8516C49.2151 37.1133 48.5307 38.4725 48.0205 39.9011C49.947 40.8584 51.7139 42.1055 53.2604 43.6011C52.6479 40.1885 52.1267 37.7028 51.6956 36.1427C51.2828 34.5387 51.0198 34.4559 50.0578 35.8504V35.8516Z" fill="#1B1D21"/>
<path d="M35.9958 12C30.3759 12 24.8682 13.5784 20.102 16.5562C15.3358 19.5339 11.5011 23.7917 9.03767 28.8436C6.57298 33.8967 5.5781 39.5392 6.16504 45.1294C6.75199 50.7195 8.89763 56.032 12.3572 60.4628C14.448 51.8766 16.534 43.2879 18.6188 34.6956C19.7025 30.2515 20.4466 28.5939 25.2006 33.1306L30.1056 37.8171C34.0133 37.2581 37.9807 37.2581 41.8884 37.8171L46.7983 33.1306C51.5474 28.5951 52.2963 30.2527 53.3752 34.6956C55.4661 43.2843 57.5545 51.8741 59.6417 60.4628C63.1037 56.0333 65.2505 50.7195 65.8375 45.1282C66.4256 39.5368 65.4295 33.893 62.9648 28.8399C60.5002 23.7869 56.6643 19.5291 51.8957 16.5513C47.1258 13.5735 41.6168 11.9964 35.9958 12Z" fill="#1B1D21"/>
</svg>
